<?xml version="1.0" standalone="no"?>
<!DOCTYPE svg PUBLIC "-//W3C//DTD SVG 20010904//EN"
 "http://www.w3.org/TR/2001/REC-SVG-20010904/DTD/svg10.dtd">
<svg version="1.0" xmlns="http://www.w3.org/2000/svg"
 width="611.000000pt" height="650.000000pt" viewBox="0 0 611.000000 650.000000"
 preserveAspectRatio="xMidYMid meet">
<metadata>
Created by potrace 1.16, written by Peter Selinger 2001-2019
</metadata>
<g transform="translate(0.000000,650.000000) scale(0.100000,-0.100000)"
fill="#000000" stroke="none">
<path d="M1610 6463 c0 -21 3 -48 6 -60 6 -20 8 -21 22 -6 14 14 18 13 35 -8
13 -16 18 -35 15 -61 -4 -40 10 -50 31 -24 9 11 9 25 1 56 -14 50 -2 70 42 70
20 0 31 -6 36 -21 8 -20 8 -20 35 5 18 17 27 35 27 56 l0 30 -125 0 -125 0 0
-37z"/>
<path d="M2217 6263 c-3 -5 9 -35 25 -68 39 -79 124 -265 178 -387 l42 -98
109 0 c60 0 109 4 109 8 0 9 -40 123 -47 135 -3 4 -11 3 -18 -3 -19 -16 -107
-23 -125 -10 -13 9 -13 12 2 21 10 5 21 28 24 49 8 50 21 51 30 4 8 -43 21
-34 29 21 6 34 3 44 -19 68 -30 32 -58 34 -93 7 -33 -26 -60 -25 -68 0 -9 27
17 65 57 86 l32 16 -35 29 -34 28 43 17 c46 18 47 20 32 58 l-10 26 -129 0
c-71 0 -132 -3 -134 -7z"/>
<path d="M2088 6253 c-18 -3 -28 -12 -32 -28 -7 -27 -43 -65 -62 -65 -8 0 -10
12 -7 39 l5 38 -53 -8 c-55 -9 -79 -22 -59 -34 6 -4 22 0 35 9 54 35 63 20 45
-73 -9 -50 -8 -54 28 -114 24 -39 44 -61 55 -61 11 1 17 -6 17 -18 0 -26 19
-60 42 -76 10 -8 18 -25 18 -42 0 -16 12 -55 28 -86 26 -54 28 -56 62 -50 19
3 68 8 108 12 40 4 75 11 78 15 2 4 -15 51 -40 103 -38 83 -47 94 -65 89 -25
-6 -28 12 -5 25 13 7 5 30 -57 155 -48 96 -79 147 -92 151 -10 2 -16 9 -12 15
3 6 3 10 -2 10 -4 -1 -20 -4 -35 -6z"/>
<path d="M1655 6169 c-60 -16 -116 -32 -123 -34 -9 -3 0 -22 29 -60 23 -30 45
-55 49 -55 8 0 30 69 30 94 0 22 16 20 68 -10 51 -30 114 -36 136 -14 13 13
12 21 -14 63 -18 28 -37 47 -48 46 -9 0 -66 -14 -127 -30z"/>
<path d="M1392 6088 c-52 -20 -53 -20 -35 -40 17 -19 17 -21 -10 -44 -37 -32
-55 -30 -70 5 l-13 30 -43 -20 -44 -19 24 -26 c23 -25 24 -25 27 -5 2 12 8 21
13 21 18 0 59 -52 61 -76 0 -13 1 -30 2 -36 1 -7 44 -63 96 -124 52 -60 118
-138 145 -172 28 -33 55 -61 61 -61 7 -1 43 11 80 25 38 15 84 31 102 36 26 7
33 14 29 28 -8 30 -140 210 -154 210 -7 0 -13 7 -13 16 0 9 -9 29 -21 45 -20
28 -21 29 -51 13 -30 -16 -32 -15 -49 7 -15 20 -19 21 -19 7 0 -23 -59 -24
-101 -3 -25 13 -28 19 -19 35 6 11 33 30 62 44 49 23 52 24 77 8 20 -13 14 -2
-24 46 -27 35 -51 65 -54 67 -4 1 -30 -6 -59 -17z"/>
<path d="M1870 5967 c-25 -23 -53 -54 -63 -69 -9 -15 -28 -30 -42 -34 -14 -3
-25 -11 -25 -17 0 -6 30 -55 68 -110 37 -55 70 -105 74 -111 4 -7 45 -1 122
18 l116 28 -19 32 c-10 17 -28 47 -39 66 -36 65 -120 205 -134 222 -12 16 -17
14 -58 -25z"/>
<path d="M2760 5924 c-36 -24 -66 -48 -67 -52 -2 -4 8 -41 21 -82 26 -85 23
-83 154 -94 58 -5 82 -4 82 4 0 6 -7 42 -16 81 -10 45 -20 69 -30 69 -10 0
-14 14 -14 54 0 47 -3 54 -22 60 -36 9 -40 8 -108 -40z"/>
<path d="M960 5899 c-132 -70 -131 -69 -77 -113 24 -20 49 -36 54 -36 5 0 17
18 26 40 11 28 21 40 35 40 37 0 35 -31 -4 -71 l-37 -38 64 -57 c35 -32 116
-110 181 -172 l116 -114 104 52 c56 28 107 55 111 59 7 7 -43 66 -259 309
l-41 46 -67 -13 c-37 -7 -69 -11 -71 -9 -3 2 -6 32 -7 66 -2 47 -7 62 -18 62
-8 0 -58 -23 -110 -51z"/>
<path d="M665 5729 c-117 -78 -118 -79 -110 -121 6 -30 23 -47 133 -129 70
-52 176 -133 235 -181 60 -49 113 -88 118 -88 4 0 48 26 98 58 49 31 97 62
106 67 15 9 5 22 -67 90 -150 144 -404 366 -416 364 -4 0 -47 -27 -97 -60z"/>
<path d="M2476 5618 c-7 -27 -26 -160 -26 -186 l0 -27 94 3 95 3 11 57 c6 31
16 73 21 92 18 71 20 70 -91 70 -72 0 -102 -4 -104 -12z"/>
<path d="M2746 5622 c-7 -11 -46 -177 -46 -196 0 -13 12 -16 64 -16 35 0 77
-3 93 -6 29 -6 29 -5 56 85 15 49 27 96 27 104 0 14 -40 27 -85 27 -12 0 -30
-9 -40 -20 -26 -29 -49 -26 -43 5 5 24 -14 36 -26 17z"/>
<path d="M2266 5609 c-32 -5 -60 -10 -62 -12 -6 -6 -16 -206 -11 -220 4 -12
18 -12 97 3 50 10 93 20 95 22 3 3 25 184 25 208 0 12 -59 11 -144 -1z"/>
<path d="M2005 5557 l-80 -22 2 -110 c2 -61 5 -115 7 -122 3 -8 32 -3 96 17
51 16 94 31 97 33 2 3 7 55 9 116 l5 111 -28 -1 c-15 0 -64 -10 -108 -22z"/>
<path d="M1820 5503 c-165 -60 -170 -63 -170 -96 0 -35 26 -207 33 -213 2 -2
47 15 101 38 l97 42 -5 40 c-3 23 -8 76 -12 119 -6 77 -9 83 -44 70z"/>
<path d="M3725 5425 c-44 -25 -111 -57 -150 -72 -44 -17 -84 -41 -107 -64 -23
-23 -52 -41 -73 -45 -28 -5 -35 -11 -35 -30 0 -19 5 -24 25 -24 43 0 27 -24
-37 -54 -46 -22 -63 -36 -74 -62 -11 -27 -20 -34 -43 -34 -51 0 -146 -57 -211
-126 -54 -58 -60 -69 -55 -95 6 -25 3 -30 -21 -39 -47 -18 -81 -48 -119 -105
-42 -64 -40 -92 6 -102 19 -3 29 -12 29 -23 0 -10 6 -20 13 -23 8 -3 13 -22
12 -48 0 -42 -1 -44 -32 -47 -33 -3 -42 -19 -22 -39 15 -15 47 -5 54 18 4 13
16 19 35 19 22 0 42 15 94 72 36 39 68 69 72 65 3 -3 -3 -18 -15 -33 -28 -36
-27 -54 4 -54 14 0 25 5 25 10 0 6 22 24 50 41 27 17 60 44 73 61 23 29 25 29
65 17 23 -7 42 -17 42 -24 0 -6 -17 -24 -37 -38 -21 -15 -82 -71 -136 -124
-79 -78 -105 -112 -131 -168 -18 -38 -42 -78 -54 -88 -20 -19 -22 -18 -101 34
-45 30 -81 60 -81 67 0 7 16 20 35 28 19 8 35 21 35 29 0 19 -37 44 -77 51
-26 5 -45 24 -112 114 -86 116 -142 171 -236 232 -57 37 -68 40 -106 24 -12
-5 -18 -1 -22 16 -5 19 -27 30 -134 67 -137 47 -251 99 -272 125 -19 22 -36
20 -55 -6 l-15 -23 -20 22 -19 23 -38 -48 c-21 -26 -42 -53 -47 -59 -12 -16
25 -188 65 -302 16 -47 61 -151 99 -231 60 -123 68 -148 60 -168 -16 -34 -14
-39 18 -45 35 -7 44 -29 29 -63 -10 -22 -9 -27 5 -36 24 -13 70 -108 97 -199
18 -61 20 -85 13 -120 -12 -57 5 -123 27 -109 8 5 25 10 38 10 19 0 22 -5 22
-36 0 -46 -27 -103 -55 -116 -15 -6 -26 -26 -34 -59 -15 -56 -43 -97 -77 -109
-29 -11 -31 -30 -4 -30 22 0 26 -20 10 -51 -8 -14 -7 -19 2 -19 7 0 41 44 75
98 74 117 128 182 152 182 13 0 23 -19 40 -73 l23 -72 -81 -114 c-48 -66 -81
-123 -81 -137 0 -29 1 -29 50 -4 47 24 50 24 50 5 0 -21 43 -39 74 -31 17 4
29 18 37 41 20 54 44 43 42 -18 -2 -55 -21 -90 -62 -111 -21 -11 -30 -25 -36
-53 -10 -57 -41 -120 -64 -132 -14 -8 -21 -21 -21 -43 0 -17 -13 -52 -29 -77
-16 -25 -33 -63 -36 -83 -8 -40 -25 -52 -25 -18 0 16 -7 20 -30 20 -36 0 -55
-27 -63 -90 -4 -31 -21 -68 -52 -114 -25 -37 -45 -74 -45 -82 0 -12 -4 -13
-22 -3 -13 6 -24 12 -25 13 -5 4 38 108 68 169 50 99 102 162 156 187 26 13
50 24 52 26 2 2 -6 16 -18 32 -27 38 -27 38 9 113 16 35 32 78 36 94 5 27 2
31 -25 41 -19 8 -32 21 -37 38 -3 14 -10 26 -14 26 -16 0 -60 -50 -60 -70 0
-22 10 -26 26 -10 7 7 16 -2 29 -30 19 -43 15 -61 -10 -40 -12 10 -18 10 -30
0 -21 -18 -19 -40 5 -40 18 0 15 -10 -28 -90 -26 -49 -50 -90 -54 -90 -3 0
-11 14 -17 30 -8 24 -16 30 -38 30 -27 0 -32 -7 -78 -117 -86 -201 -191 -354
-254 -370 -20 -5 -22 -10 -18 -38 4 -22 -1 -47 -14 -72 -16 -33 -17 -45 -8
-71 14 -41 6 -60 -30 -73 -27 -10 -30 -14 -23 -42 11 -49 7 -98 -11 -144 -28
-72 -69 -313 -56 -329 20 -24 60 -167 49 -178 -25 -25 12 -116 47 -116 16 0
17 -12 2 -27 -8 -8 -1 -22 26 -52 30 -33 44 -41 72 -41 31 0 33 2 23 21 -22
40 -2 30 54 -28 30 -32 56 -66 56 -75 0 -11 8 -18 20 -18 11 0 20 7 20 15 0
23 6 19 52 -31 46 -50 113 -88 170 -97 27 -4 38 -2 38 7 0 7 18 18 40 25 22 6
45 21 51 32 6 11 16 18 22 16 48 -20 45 -24 44 67 -2 75 -4 86 -19 86 -16 0
-18 10 -18 71 0 39 -5 79 -11 90 -8 16 -6 23 13 39 21 17 22 21 11 51 -12 31
-11 35 19 66 36 38 68 44 68 13 0 -13 7 -20 20 -20 22 0 25 12 9 42 -8 15 -6
31 11 71 12 28 23 71 24 96 1 41 -2 46 -21 49 -13 2 -23 7 -23 12 0 24 53 147
71 166 19 20 20 28 11 71 -12 52 -10 57 19 59 37 3 39 4 39 24 0 16 -5 19 -23
15 -19 -5 -26 0 -40 30 -21 44 -21 56 -1 48 10 -4 32 12 65 46 30 32 49 45 49
35 0 -13 6 -15 27 -9 49 12 60 50 13 43 -25 -4 -30 -2 -24 11 4 9 13 41 20 71
12 50 12 56 -3 67 -24 18 -43 16 -43 -5 0 -23 -19 -42 -42 -42 -24 0 -23 15 6
77 23 49 69 93 83 79 4 -4 1 -21 -5 -39 -17 -48 -15 -57 12 -57 29 0 54 28
129 147 40 64 57 100 57 124 0 27 6 37 30 51 18 10 32 29 38 50 10 40 46 52
57 19 3 -12 13 -21 21 -21 21 0 28 -25 14 -49 -9 -17 -8 -25 5 -38 14 -13 18
-14 25 -3 16 26 110 -16 201 -91 23 -18 30 -19 50 -9 15 8 24 9 26 3 2 -6 14
-30 26 -54 21 -42 24 -44 62 -42 22 1 51 3 65 5 20 2 28 -4 40 -29 12 -25 21
-33 43 -33 24 0 27 3 22 21 -7 21 -5 22 46 15 83 -11 164 -34 284 -81 105 -41
115 -43 228 -45 114 -2 117 -1 117 20 0 12 -5 31 -11 42 -7 14 -8 23 -1 27 7
4 6 25 -1 64 -12 57 -12 57 -73 86 -58 27 -104 70 -104 96 0 8 -9 10 -25 7
-19 -3 -25 0 -25 14 0 24 -84 102 -117 109 -130 28 -239 144 -369 390 l-55
105 25 64 c14 35 26 69 26 74 0 16 -78 34 -100 22 -16 -9 -22 -6 -35 19 -20
39 -19 41 9 41 27 0 56 34 82 97 11 25 13 38 5 41 -6 2 -11 15 -11 28 0 14 4
22 10 19 6 -3 10 -15 10 -26 0 -13 7 -19 24 -19 19 0 27 9 41 48 10 26 30 72
46 103 17 34 24 60 19 69 -5 7 -3 24 3 38 10 21 8 27 -16 48 -16 13 -37 24
-48 24 -26 0 -26 46 0 60 33 17 51 12 51 -15 0 -33 7 -32 66 10 45 33 49 34
52 15 5 -31 65 -28 90 5 11 13 65 73 121 132 55 59 101 110 101 115 0 4 -16 8
-35 8 -38 0 -40 2 -25 30 9 16 14 18 34 8 33 -14 67 -4 106 32 28 26 31 34 26
67 -5 35 -3 40 27 58 17 11 36 30 42 43 6 13 19 22 32 22 30 0 29 -14 -2 -28
-14 -7 -28 -24 -33 -44 -8 -28 -6 -36 11 -51 21 -18 21 -18 33 22 6 22 21 56
33 76 14 24 19 44 14 65 -5 26 -3 30 16 30 18 0 21 -4 16 -20 -6 -18 -3 -19
27 -14 54 9 58 12 58 39 0 20 -5 25 -25 25 -23 0 -24 2 -13 25 17 38 3 41 -40
6 -39 -30 -72 -40 -72 -22 0 25 16 44 53 62 33 17 44 19 65 9 21 -9 27 -8 34
4 9 16 89 43 143 48 28 3 30 6 28 40 -2 34 1 38 25 44 59 13 98 27 116 43 17
15 14 16 -55 21 -66 4 -74 7 -74 25 0 16 9 22 50 28 86 15 95 17 95 26 0 5
-30 18 -67 30 -62 18 -188 85 -222 116 -11 11 -4 15 40 22 45 7 55 12 57 31 3
18 -5 26 -40 41 -24 11 -76 25 -116 32 -60 10 -72 15 -66 28 18 44 16 48 -56
94 -99 63 -186 91 -262 84 -50 -4 -60 -3 -69 14 -14 26 -23 24 -114 -26z m65
-307 c0 -7 3 -22 6 -34 5 -17 -2 -24 -38 -37 -24 -9 -88 -42 -143 -72 -54 -30
-103 -55 -107 -55 -4 0 -8 10 -8 23 0 16 9 26 30 34 16 6 34 22 39 36 11 28
55 58 138 92 66 28 83 30 83 13z m-264 -486 c-51 -96 -220 -287 -403 -455 -80
-72 -149 -133 -154 -135 -23 -9 -6 28 18 40 16 8 31 26 37 43 19 65 39 88 264
313 216 216 274 262 238 194z m269 -343 c4 -11 5 -21 3 -23 -1 -1 -20 -9 -42
-19 l-38 -18 5 -87 c2 -48 2 -72 0 -53 l-4 34 -50 -6 c-55 -7 -59 0 -36 56 20
46 64 95 106 117 46 24 48 24 56 -1z m-1060 -1521 c20 -9 25 -16 20 -32 -4
-12 -9 -38 -12 -58 -3 -21 -11 -42 -19 -49 -8 -6 -14 -20 -14 -31 0 -47 -62
-98 -119 -98 l-31 0 36 63 c20 34 52 97 72 139 21 43 38 78 39 78 1 0 14 -5
28 -12z m-345 -120 c0 -42 -26 -93 -55 -106 -22 -10 -24 -14 -13 -36 15 -33
-5 -61 -32 -46 -21 11 -28 -4 -55 -127 -9 -40 -21 -73 -26 -73 -5 0 -9 7 -9
15 0 9 -11 27 -26 41 -29 30 -28 58 3 62 53 8 104 116 85 180 -9 28 -8 34 6
38 66 21 94 39 99 66 7 35 23 26 23 -14z m-467 -417 c11 -11 -28 -75 -77 -124
-22 -21 -26 -31 -17 -37 16 -9 10 -29 -42 -142 -36 -80 -58 -108 -57 -75 2 47
103 381 108 354 5 -25 52 -23 52 3 0 15 -7 20 -25 20 -14 0 -25 5 -25 11 0 14
68 5 83 -10z"/>
<path d="M1473 5356 c-50 -24 -94 -49 -98 -56 -7 -11 42 -229 54 -242 3 -3 44
16 91 43 47 27 89 50 94 52 6 2 2 47 -8 108 -21 123 -25 139 -35 139 -4 0 -48
-20 -98 -44z"/>
<path d="M1200 5199 c-52 -34 -97 -63 -99 -65 -6 -5 56 -188 75 -226 l14 -27
90 66 c50 36 90 70 90 74 0 5 -9 41 -19 81 -11 40 -25 92 -31 116 -6 23 -14
42 -18 42 -4 0 -50 -27 -102 -61z"/>
<path d="M935 5005 c-61 -51 -89 -82 -88 -94 1 -10 25 -67 52 -126 38 -81 54
-104 64 -98 8 4 48 40 90 78 l77 70 -43 119 c-23 66 -46 121 -52 123 -5 1 -50
-31 -100 -72z"/>
<path d="M684 4775 c-46 -47 -84 -92 -84 -100 0 -9 30 -67 66 -130 l66 -113
36 41 c20 23 58 66 86 95 l50 52 -59 120 c-33 66 -63 120 -68 120 -5 0 -47
-38 -93 -85z"/>
<path d="M4410 4456 c-44 -29 -53 -40 -73 -96 -26 -70 -22 -84 44 -154 112
-121 225 -179 301 -157 74 23 87 85 37 186 -39 79 -152 223 -185 235 -41 16
-86 11 -124 -14z m106 -75 c36 -22 123 -136 141 -183 13 -38 17 -98 6 -98 -19
0 -108 60 -173 114 -58 50 -68 64 -64 83 4 15 0 30 -9 41 -25 28 -24 45 3 53
42 12 64 10 96 -10z"/>
<path d="M4800 4171 c0 -18 27 -66 45 -81 21 -17 3 -30 -42 -30 -28 0 -33 -3
-33 -25 0 -14 -6 -25 -13 -25 -7 0 -22 -7 -34 -15 -19 -13 -20 -19 -11 -57 11
-52 34 -78 76 -84 37 -6 57 21 47 66 -6 29 -5 30 24 24 31 -6 31 -6 20 25 -6
17 -16 31 -22 31 -7 0 -3 7 7 15 11 8 39 15 63 15 28 0 43 4 43 13 0 6 -26 33
-58 58 -78 63 -112 84 -112 70z"/>
<path d="M4169 4090 c-55 -46 -87 -113 -96 -199 -7 -68 4 -91 43 -91 21 0 24
5 24 35 0 36 72 205 88 205 5 0 12 -66 15 -147 4 -82 10 -158 13 -171 8 -28
73 -63 102 -56 45 12 113 132 142 254 18 73 -7 51 -83 -75 -30 -49 -60 -91
-66 -93 -8 -3 -11 31 -12 110 0 150 -11 247 -30 259 -8 5 -32 9 -54 9 -32 0
-49 -8 -86 -40z"/>
<path d="M4613 3949 c-8 -8 -8 -20 -1 -41 12 -34 9 -39 -35 -53 -41 -13 -46
-47 -17 -107 20 -40 20 -42 1 -20 -21 24 -51 30 -51 9 0 -8 9 -25 21 -38 30
-34 50 -77 40 -83 -5 -3 -27 14 -50 39 -23 25 -46 45 -51 45 -22 0 -8 -39 27
-73 l37 -37 -24 -43 c-13 -23 -25 -44 -27 -46 -1 -2 -25 15 -53 38 -33 28 -58
41 -73 39 l-22 -3 23 -22 c27 -28 27 -33 3 -33 -45 0 -51 -72 -10 -124 42 -53
115 -29 103 34 -7 32 6 40 26 15 19 -22 28 -11 51 65 16 55 25 69 42 72 12 2
26 12 32 23 6 12 18 19 28 17 9 -2 17 0 17 4 0 4 -8 16 -17 27 -17 19 -17 20
0 14 27 -10 53 24 60 77 4 27 4 53 1 58 -7 11 -6 11 39 -12 25 -12 30 -12 38
1 13 21 11 27 -13 40 -26 13 -40 27 -86 87 -36 45 -42 48 -59 31z"/>
<path d="M3914 3722 c-22 -15 -79 -109 -111 -182 -46 -106 -44 -132 9 -91 l25
20 89 -60 c123 -83 143 -93 159 -79 29 24 -18 88 -138 186 l-37 30 25 52 c13
28 28 69 31 92 6 37 5 40 -17 40 -13 0 -29 -4 -35 -8z"/>
<path d="M4138 3702 c-25 -26 -118 -154 -118 -162 0 -11 59 -60 71 -60 5 0 21
19 35 43 15 23 42 62 61 86 39 52 41 66 11 92 -28 23 -38 23 -60 1z"/>
<path d="M3628 3450 c-57 -38 -131 -147 -131 -193 0 -25 11 -40 59 -83 32 -29
70 -59 84 -66 14 -6 39 -22 56 -35 18 -12 58 -34 90 -48 l59 -26 17 22 c27 32
22 46 -26 74 -72 42 -79 54 -61 105 8 23 15 51 15 61 0 40 -73 9 -91 -39 l-10
-25 -27 25 c-15 14 -37 31 -49 37 -15 8 -23 21 -23 38 0 29 58 113 95 137 29
19 33 46 7 46 -10 0 -39 -14 -64 -30z"/>
<path d="M4280 3441 c-7 -14 -6 -31 5 -60 8 -23 12 -41 9 -41 -2 0 -22 11 -43
24 -40 26 -65 22 -59 -9 3 -20 72 -64 131 -86 30 -10 40 -10 49 -1 10 10 9 19
-6 45 -57 100 -75 135 -69 141 4 3 3 6 0 6 -3 0 -11 -9 -17 -19z"/>
<path d="M3719 3411 c-13 -10 -20 -24 -17 -33 5 -13 176 -142 232 -175 37 -22
56 -16 56 16 0 49 -67 112 -192 179 -55 30 -57 31 -79 13z"/>
<path d="M1880 3372 c-46 -45 -52 -72 -15 -72 28 0 34 -24 12 -54 -11 -15 -17
-16 -35 -7 -32 17 -42 13 -42 -14 0 -18 5 -25 20 -25 22 0 25 -7 11 -29 -5 -8
-16 -11 -30 -6 -18 5 -21 2 -21 -19 0 -27 23 -46 49 -39 9 2 29 37 45 76 32
79 100 157 135 157 36 0 22 24 -27 48 -26 12 -50 22 -54 22 -4 0 -25 -17 -48
-38z"/>
<path d="M4745 3156 c-2 -6 -5 -35 -8 -63 -4 -47 -1 -56 24 -84 19 -21 39 -32
67 -36 l39 -5 8 87 c4 47 5 88 3 90 -1 2 -32 7 -66 13 -45 6 -65 6 -67 -2z"/>
<path d="M3990 3144 c0 -9 17 -47 37 -85 l37 -69 -22 -29 c-12 -17 -22 -34
-22 -39 0 -4 -5 -13 -12 -20 -9 -9 -23 -1 -59 33 -51 47 -56 50 -77 36 -10 -6
8 -27 63 -77 74 -66 78 -68 91 -49 8 11 22 43 30 71 13 45 18 51 36 46 19 -4
20 -2 14 22 -9 36 0 49 24 36 24 -13 35 3 15 20 -8 7 -15 24 -15 37 0 22 -2
24 -16 12 -14 -12 -20 -9 -43 17 -23 28 -60 54 -75 54 -3 0 -6 -7 -6 -16z"/>
<path d="M5113 3011 c-106 -47 -195 -93 -198 -101 -6 -19 -32 -170 -29 -170 8
0 331 114 367 129 l44 19 12 76 c13 89 14 136 4 135 -5 -1 -95 -40 -200 -88z"/>
<path d="M5608 2971 c-6 -10 -17 -17 -24 -14 -6 2 -35 -7 -63 -21 -53 -27 -62
-47 -41 -87 13 -23 45 -27 36 -4 -10 27 13 16 28 -14 15 -29 41 -45 56 -36 16
10 32 77 26 106 -3 16 -1 29 4 29 6 0 10 14 10 30 0 34 -14 39 -32 11z"/>
<path d="M4711 2878 c-7 -35 -14 -70 -17 -80 -4 -12 9 -21 52 -38 32 -11 63
-19 69 -16 7 2 18 33 24 69 16 92 15 104 -13 109 -19 4 -22 1 -18 -14 6 -26
-11 -22 -23 5 -6 13 -20 23 -36 25 -25 3 -27 0 -38 -60z"/>
<path d="M5076 2758 c-109 -37 -201 -70 -205 -73 -7 -8 -50 -169 -46 -173 8
-8 392 94 411 109 6 5 14 24 18 42 3 17 12 60 20 95 7 34 11 64 7 65 -3 2 -95
-27 -205 -65z"/>
<path d="M5395 2795 c-18 -15 -18 -16 -2 -44 9 -16 17 -39 17 -50 0 -12 3 -21
8 -21 17 0 157 59 160 68 3 10 -54 36 -113 52 -49 12 -46 12 -70 -5z"/>
<path d="M4674 2703 c-3 -15 -12 -50 -20 -78 -17 -58 -14 -62 59 -94 35 -15
49 -17 52 -8 52 160 52 155 3 176 -82 35 -87 35 -94 4z"/>
<path d="M5025 2514 c-99 -25 -190 -47 -202 -49 -16 -4 -29 -25 -52 -86 -17
-45 -29 -84 -26 -87 3 -3 47 0 98 7 180 24 167 21 161 47 -3 13 -2 24 4 24 15
0 33 -26 24 -35 -4 -4 7 -5 23 -2 17 4 46 9 66 13 32 5 39 11 52 47 44 119 56
168 40 166 -5 -1 -89 -21 -188 -45z"/>
<path d="M4596 2448 c-14 -40 -26 -77 -26 -83 0 -15 101 -69 110 -59 12 13 60
131 60 146 0 10 -97 68 -113 68 -3 0 -16 -33 -31 -72z"/>
<path d="M4511 2244 c-17 -36 -31 -72 -31 -78 0 -7 21 -27 46 -45 43 -32 46
-32 60 -15 8 11 28 45 43 76 26 52 27 58 12 71 -19 16 -86 57 -94 57 -3 0 -19
-30 -36 -66z"/>
<path d="M4879 2262 l-166 -25 -34 -75 c-19 -41 -36 -80 -38 -85 -4 -10 113
-6 295 10 l72 6 6 48 c9 66 26 73 26 10 0 -28 4 -51 9 -51 12 0 71 136 71 165
0 22 -4 25 -37 24 -21 -1 -113 -13 -204 -27z"/>
<path d="M4406 2043 c-20 -37 -36 -71 -36 -75 0 -7 84 -78 93 -78 12 0 88 140
82 151 -9 13 -86 69 -96 69 -4 0 -24 -30 -43 -67z"/>
<path d="M5344 2061 c-14 -22 -23 -44 -20 -50 3 -5 1 -22 -5 -37 -8 -23 -12
-25 -19 -14 -8 13 -12 12 -24 -5 -15 -20 -15 -20 -16 0 0 11 -7 28 -15 39 -8
11 -12 30 -8 47 3 18 1 29 -6 29 -6 0 -11 -11 -11 -25 0 -16 -6 -25 -15 -25
-11 0 -15 -11 -15 -40 0 -33 -3 -40 -20 -40 -25 0 -28 -41 -5 -60 13 -11 18
-10 30 6 8 11 14 14 15 7 0 -15 50 -18 50 -3 0 6 11 10 25 10 26 0 52 40 95
150 16 42 17 50 5 50 -8 0 -26 -18 -41 -39z"/>
<path d="M1325 2080 c-3 -5 -26 -10 -51 -10 l-44 0 0 -61 c0 -54 2 -60 18 -54
9 3 29 9 45 12 23 5 27 2 27 -16 0 -16 6 -21 25 -21 29 0 45 30 45 86 0 47
-47 93 -65 64z"/>
<path d="M4940 2023 c-32 -27 -33 -27 -25 -3 7 23 7 23 -55 17 -35 -4 -103 -7
-153 -7 -75 0 -88 -2 -83 -15 3 -8 9 -22 12 -30 5 -11 -1 -15 -25 -15 -26 0
-36 -7 -61 -46 -32 -52 -31 -64 6 -64 21 0 24 4 19 20 -5 17 -2 20 20 20 22 0
25 -3 20 -20 -6 -18 -2 -20 32 -20 22 0 45 6 52 13 10 10 14 9 22 -5 7 -13 23
-18 59 -18 l49 0 -2 38 c-2 30 1 36 15 34 10 -1 19 7 25 22 6 19 12 23 23 16
12 -8 12 -14 -3 -45 -9 -20 -17 -42 -17 -50 0 -20 44 -20 63 0 13 12 97 167
97 177 0 2 -13 5 -29 6 -20 1 -40 -7 -61 -25z"/>
<path d="M4284 1854 l-47 -66 46 -46 c53 -53 43 -57 114 47 l36 55 -44 38
c-24 21 -47 38 -51 38 -4 0 -28 -30 -54 -66z"/>
<path d="M4433 1748 l-53 -73 33 -7 c17 -4 100 -14 182 -23 83 -9 159 -17 170
-18 15 -1 34 20 77 82 32 46 55 88 52 92 -8 13 -58 11 -72 -3 -9 -9 -15 -9
-24 0 -7 7 -27 12 -45 12 -29 0 -33 -3 -33 -25 0 -34 -25 -32 -42 3 -13 26
-16 27 -103 30 l-90 3 -52 -73z"/>
<path d="M4152 1684 l-53 -64 38 -51 38 -51 58 63 c31 35 57 67 57 72 0 4 -19
28 -42 52 l-43 43 -53 -64z"/>
<path d="M4876 1665 c-36 -55 -44 -75 -27 -75 21 0 22 -35 1 -52 -29 -24 -40
-23 -40 3 0 16 -16 2 -60 -54 -43 -55 -60 -85 -60 -106 0 -33 -17 -51 -26 -27
-4 10 -24 -6 -69 -58 -35 -40 -116 -122 -180 -184 -72 -68 -114 -116 -109
-123 5 -8 9 -7 15 4 10 17 77 43 86 33 4 -3 1 -17 -5 -31 -11 -23 -10 -25 12
-25 14 0 30 10 40 25 18 28 41 32 53 10 7 -12 13 -10 38 10 29 24 30 25 10 40
-18 14 -20 14 -27 -5 -6 -15 -12 -18 -30 -11 -53 20 -49 60 10 90 43 22 87 62
141 129 19 23 42 42 52 42 11 0 19 7 19 17 0 25 14 6 26 -35 l10 -37 18 34
c17 32 17 34 -3 55 -12 12 -21 24 -21 27 0 3 22 22 50 43 37 28 51 46 56 72 9
50 31 27 40 -43 l7 -56 17 34 c16 29 16 36 4 54 -16 23 -18 35 -5 35 5 0 13
-10 17 -22 6 -20 7 -21 19 -4 13 17 14 16 25 -5 13 -23 5 -35 -34 -54 -8 -3
-8 -7 1 -11 7 -3 9 -12 6 -20 -8 -22 21 -17 44 9 27 30 113 156 113 165 0 4
-22 9 -50 10 -38 1 -51 -2 -60 -16 -9 -16 -11 -16 -20 1 -6 9 -20 17 -30 17
-26 0 -35 18 -17 38 24 28 31 62 13 62 -10 0 -16 9 -16 25 0 38 -14 30 -54
-30z"/>
<path d="M4294 1574 c-27 -31 -52 -62 -56 -69 -10 -17 42 -31 52 -14 6 8 10 6
17 -6 7 -12 44 -24 124 -41 140 -29 149 -29 149 -5 0 11 6 21 13 24 9 3 9 7
-2 20 -11 14 -11 18 2 23 34 13 49 -25 26 -68 -16 -30 0 -36 21 -8 14 18 20
42 20 87 0 34 -4 64 -8 67 -8 5 -272 46 -297 46 -6 0 -34 -25 -61 -56z"/>
<path d="M4006 1523 l-58 -57 23 -44 c38 -69 40 -70 110 -4 l63 59 -34 51
c-19 29 -37 52 -40 52 -3 0 -31 -26 -64 -57z"/>
<path d="M3875 1404 c-16 -15 -45 -39 -63 -55 l-32 -30 25 -49 c14 -28 30 -50
36 -50 15 0 129 93 129 106 0 10 -57 104 -62 104 -2 0 -16 -12 -33 -26z"/>
<path d="M4297 1384 c-14 -28 -22 -35 -38 -31 -18 5 -20 2 -15 -18 4 -14 0
-27 -9 -35 -8 -7 -12 -16 -9 -21 4 -8 187 -69 205 -69 4 0 10 12 14 27 5 21 8
24 16 12 7 -11 20 -1 63 46 30 33 55 64 56 69 0 5 -18 6 -40 3 -22 -3 -38 -1
-35 3 3 5 -3 11 -12 14 -22 7 -161 36 -172 36 -4 0 -15 -16 -24 -36z"/>
<path d="M3672 1244 c-56 -41 -61 -48 -55 -72 13 -56 33 -93 46 -86 15 9 109
75 121 85 9 8 -31 119 -43 119 -3 0 -34 -21 -69 -46z"/>
<path d="M3947 1232 l-68 -57 58 -27 c39 -19 69 -27 91 -24 26 4 32 2 30 -11
-2 -12 19 -25 77 -49 44 -18 89 -33 100 -33 11 0 53 31 94 68 l74 68 -84 27
c-47 14 -92 26 -100 26 -8 0 -19 4 -24 9 -10 8 -101 41 -116 41 -4 0 -5 -9 -2
-20 4 -16 -4 -24 -42 -40 -26 -11 -49 -20 -53 -20 -3 0 13 20 37 44 35 36 40
44 26 50 -25 9 -26 9 -98 -52z"/>
<path d="M3493 1127 c-40 -23 -71 -46 -69 -52 2 -5 8 -9 13 -8 6 1 8 -9 5 -22
-2 -15 0 -25 7 -25 6 0 11 10 11 23 0 28 17 47 42 47 14 0 18 -8 18 -36 0 -29
-3 -34 -17 -30 -13 4 -23 -3 -35 -25 -18 -30 -17 -30 3 -24 11 4 47 23 80 42
58 35 59 36 45 62 -8 14 -18 40 -23 58 l-8 32 -72 -42z"/>
<path d="M3757 1090 l-69 -49 40 -25 c38 -24 296 -156 305 -156 2 0 41 29 87
65 78 61 81 65 59 74 -72 28 -130 52 -179 74 -114 51 -153 67 -164 66 -6 0
-42 -23 -79 -49z"/>
<path d="M3345 1034 c-12 -19 -19 -23 -25 -14 -5 9 -18 6 -50 -10 -41 -21 -42
-23 -36 -58 3 -20 6 -47 6 -59 0 -30 8 -29 94 12 l74 35 -15 60 c-9 33 -19 60
-23 60 -4 0 -15 -12 -25 -26z"/>
<path d="M3563 968 c-40 -23 -69 -46 -66 -51 10 -16 276 -187 301 -194 15 -3
30 1 45 15 12 11 32 23 45 27 30 9 28 21 -7 33 -23 8 -28 15 -24 31 8 33 27
39 21 7 -4 -22 -2 -26 11 -20 36 15 52 16 65 5 9 -8 16 -8 20 -2 4 5 -42 36
-101 67 -60 32 -133 73 -163 91 -30 18 -59 33 -65 33 -5 0 -42 -19 -82 -42z"/>
<path d="M3090 935 c-48 -20 -55 -27 -58 -54 -3 -24 1 -31 13 -31 12 0 15 -5
10 -17 -4 -10 -9 -24 -12 -31 -7 -17 32 -8 105 25 l54 23 -7 43 c-8 45 -21 68
-39 66 -6 0 -36 -11 -66 -24z"/>
<path d="M4276 933 c-3 -4 -6 -32 -6 -64 0 -55 -1 -58 -29 -64 -15 -3 -32 -5
-37 -4 -5 1 -13 1 -19 0 -10 -2 111 -51 126 -51 5 0 15 14 24 30 16 31 42 43
31 14 -26 -68 -22 -70 42 -19 87 68 89 71 65 103 -11 15 -37 33 -58 40 -43 14
-130 23 -139 15z"/>
<path d="M3356 861 l-79 -38 92 -76 c125 -105 135 -111 160 -98 29 16 56 15
43 -2 -10 -11 -6 -57 4 -57 2 0 33 14 68 32 56 27 74 45 80 79 1 5 -281 200
-287 198 -1 0 -38 -18 -81 -38z"/>
<path d="M4039 802 c-38 -29 -260 -167 -306 -191 -24 -12 -43 -27 -43 -34 0
-7 -9 -23 -20 -35 -25 -27 -25 -32 0 -32 11 0 49 -18 86 -40 66 -41 96 -45
108 -15 3 8 24 22 46 31 22 9 49 29 61 45 l20 28 -41 21 c-62 32 -42 73 22 45
13 -5 20 -2 25 11 13 36 28 34 39 -4 7 -26 20 -42 46 -56 l35 -20 91 65 c51
35 92 67 92 70 0 4 -34 19 -75 34 -41 15 -79 34 -84 42 -7 13 -11 12 -25 -8
-9 -13 -16 -35 -16 -50 0 -26 -35 -68 -46 -56 -15 15 -15 95 -1 130 18 43 18
43 -14 19z"/>
<path d="M3143 773 c-40 -13 -73 -28 -73 -33 0 -9 172 -179 226 -224 18 -14
38 -26 45 -26 7 0 33 21 57 48 27 29 45 42 48 35 9 -21 24 -14 24 11 0 17 -28
46 -117 120 -65 53 -122 96 -128 95 -5 0 -43 -12 -82 -26z"/>
<path d="M2966 688 c-19 -37 -21 -68 -3 -68 13 -1 -21 -30 -35 -30 -4 0 -8 25
-8 55 0 55 0 55 -27 49 -16 -4 -32 -10 -37 -15 -7 -7 107 -159 120 -159 3 0 2
9 -1 20 -4 11 -2 20 4 20 6 0 11 -4 11 -9 0 -4 11 -20 25 -35 14 -15 25 -38
25 -51 0 -35 17 -39 28 -8 7 19 11 22 11 10 1 -14 6 -17 21 -12 28 9 63 -4 56
-21 -7 -17 -9 -17 48 2 43 15 46 18 32 33 -10 11 -12 21 -6 27 13 13 -201 224
-228 224 -13 0 -26 -12 -36 -32z"/>
<path d="M2787 643 c-4 -3 -7 -15 -7 -25 0 -20 -54 -58 -82 -58 -24 0 -23 -8
10 -56 40 -60 79 -104 92 -104 7 0 10 -6 7 -13 -3 -7 1 -21 8 -31 19 -25 95
-14 95 14 0 11 -9 20 -22 23 -22 3 -21 4 6 16 27 11 31 10 50 -14 17 -22 27
-25 49 -20 15 4 27 13 27 19 0 18 -53 66 -73 66 -10 0 -14 6 -11 13 5 14 -119
177 -135 177 -4 0 -11 -3 -14 -7z"/>
<path d="M3640 453 c-14 -7 -42 -16 -63 -19 -21 -4 -42 -15 -47 -25 -6 -9 -17
-25 -26 -34 -24 -23 -2 -45 26 -27 28 17 33 15 28 -13 -4 -18 1 -29 19 -41 24
-15 29 -14 124 32 54 26 99 50 99 53 0 3 -31 24 -68 47 -61 36 -69 39 -92 27z"/>
<path d="M3066 344 c-44 -13 -127 -34 -185 -46 -59 -12 -108 -23 -110 -24 -6
-5 21 -94 29 -94 4 0 13 7 20 15 7 8 16 12 22 9 12 -8 -10 -34 -29 -34 -11 0
-13 -5 -8 -17 4 -10 10 -26 12 -35 7 -24 60 -24 66 0 4 16 5 16 6 0 1 -14 10
-18 43 -18 l42 0 -34 35 c-19 20 -40 33 -46 31 -17 -7 -26 22 -14 45 17 31 34
23 101 -46 34 -36 71 -65 81 -65 21 0 189 48 197 56 3 3 -21 30 -53 59 -44 39
-58 57 -53 70 5 12 14 15 30 11 33 -8 65 17 52 40 -14 22 -29 20 -33 -6 -3
-17 -6 -19 -18 -9 -8 6 -14 20 -14 30 0 23 -5 23 -104 -7z"/>
<path d="M3420 314 c-16 -8 -40 -11 -66 -8 -30 4 -44 2 -53 -10 -8 -9 -29 -16
-49 -16 l-36 0 44 -45 c24 -25 53 -48 63 -51 19 -6 219 64 212 75 -2 4 -23 21
-47 38 -40 28 -46 30 -68 17z"/>
</g>
</svg>
